<svg xmlns="http://www.w3.org/2000/svg" xmlns:xlink="http://www.w3.org/1999/xlink" viewBox="0 0 128 128"><defs><style>.cls-1{fill:none;}.cls-2{fill:#4d91bb;}.cls-3{clip-path:url(#clip-path);}.cls-4{fill:#2175aa;}.cls-5{fill:#87dbec;}</style><clipPath id="clip-path"><path class="cls-1" d="M64,16A48,48,0,1,1,16,64,48,48,0,0,1,64,16ZM46,64A18,18,0,1,0,64,46,18,18,0,0,0,46,64Z"/></clipPath></defs><title>13 Support Service</title><g id="_13_Support_Service" data-name="13 Support Service"><path class="cls-2" d="M64,16A48,48,0,1,1,16,64,48,48,0,0,1,64,16ZM46,64A18,18,0,1,0,64,46,18,18,0,0,0,46,64Z"/><g class="cls-3"><polygon class="cls-4" points="65.52 51.17 64 46.35 48.59 34.24 65.52 51.17"/><polygon class="cls-4" points="62.59 76.73 64 81.65 79.52 93.66 62.59 76.73"/><polygon class="cls-4" points="76.83 65.52 81.65 64 93.76 48.59 76.83 65.52"/><polygon class="cls-4" points="51.27 62.59 46.35 64 34.34 79.52 51.27 62.59"/></g><path class="cls-5" d="M67.51,46.35A18,18,0,0,1,81.65,60.49l22.62-22.62A48.12,48.12,0,0,0,90.13,23.73Z"/><path class="cls-5" d="M76.73,76.73a17.91,17.91,0,0,1-9.22,4.92l22.62,22.62a48.12,48.12,0,0,0,14.14-14.14L81.65,67.51A17.91,17.91,0,0,1,76.73,76.73Z"/><path class="cls-5" d="M60.49,81.65A18,18,0,0,1,46.35,67.51L23.73,90.13a48.12,48.12,0,0,0,14.14,14.14Z"/><path class="cls-5" d="M23.73,37.87,46.35,60.49A18,18,0,0,1,60.49,46.35L37.87,23.73A48.12,48.12,0,0,0,23.73,37.87Z"/></g></svg>