<svg xmlns="http://www.w3.org/2000/svg" viewBox="0 0 128 128"><defs><style>.cls-1{fill:#4d91bb;}.cls-2{fill:#2175aa;}.cls-3{fill:#c3edf5;}.cls-4{fill:#87dbec;}.cls-5{fill:#7ad0cb;}</style></defs><title>39 Email Marketing</title><g id="_39_Email_Marketing" data-name="39 Email Marketing"><rect class="cls-1" x="16" y="40" width="96" height="72"/><polygon class="cls-2" points="112 40 70.86 70.86 68.07 68.07 112 40"/><polygon class="cls-2" points="16 40 57.14 70.86 59.93 68.07 16 40"/><rect class="cls-3" x="16" y="28" width="96" height="72" transform="translate(128 0) rotate(90)"/><polygon class="cls-4" points="100 47.67 68.07 68.07 70.86 70.86 100 49 100 47.67"/><polygon class="cls-4" points="28 47.67 59.93 68.07 57.14 70.86 28 49 28 47.67"/><rect class="cls-5" x="59.93" y="27.47" width="31.5" height="6"/><rect class="cls-5" x="59.93" y="37.47" width="31.5" height="6"/><rect class="cls-5" x="36.57" y="47.47" width="54.86" height="6"/><polygon class="cls-1" points="112 112 16 112 16 40 112 112"/><polygon class="cls-1" points="16 112 112 112 112 40 16 112"/><polygon class="cls-1" points="112 112 16 112 64 64 112 112"/><polygon class="cls-2" points="112 112 73.33 69 70.86 70.86 112 112"/><polygon class="cls-2" points="16 112 54.67 69 57.14 70.86 16 112"/><rect class="cls-5" x="36.57" y="27.47" width="19.36" height="16"/></g></svg>