<svg id="_40_Events_Calendar" data-name="40 Events Calendar" xmlns="http://www.w3.org/2000/svg" viewBox="0 0 128 128"><defs><style>.cls-1{fill:#4dbab4;}.cls-2{fill:#1fa49c;}.cls-3{fill:#c3edf5;}.cls-4{fill:#87dbec;}.cls-5{fill:#4d91bb;}</style></defs><title>40 Events Calendar</title><rect class="cls-1" x="28" y="22" width="12" height="15"/><rect class="cls-1" x="88" y="22" width="12" height="15"/><polygon class="cls-2" points="40 36 28 34 40 33 40 36"/><polygon class="cls-2" points="100 36 88 34 100 33 100 36"/><rect class="cls-3" x="16" y="34" width="96" height="72"/><polygon class="cls-4" points="16 52 112 56.5 112 52 16 52"/><rect class="cls-5" x="16" y="34" width="96" height="18"/><rect class="cls-4" x="30" y="64" width="12" height="12"/><rect class="cls-4" x="70" y="64" width="12" height="12"/><rect class="cls-4" x="90" y="64" width="12" height="12"/><rect class="cls-4" x="50" y="64" width="12" height="12"/><rect class="cls-4" x="30" y="84" width="12" height="12"/><rect class="cls-4" x="70" y="84" width="12" height="12"/><rect class="cls-4" x="90" y="84" width="12" height="12"/><rect class="cls-4" x="50" y="84" width="12" height="12"/><rect class="cls-1" x="28" y="63" width="12" height="12"/><rect class="cls-1" x="68" y="63" width="12" height="12"/><rect class="cls-1" x="88" y="63" width="12" height="12"/><rect class="cls-1" x="48" y="63" width="12" height="12"/><rect class="cls-1" x="28" y="83" width="12" height="12"/><rect class="cls-1" x="68" y="83" width="12" height="12"/><rect class="cls-1" x="88" y="83" width="12" height="12"/><rect class="cls-1" x="48" y="83" width="12" height="12"/></svg>